<svg xmlns="http://www.w3.org/2000/svg" width="255.135" height="278.182" viewBox="0 0 255.135 278.182">
  <g id="Group_35031" data-name="Group 35031" transform="translate(0 -3.908)" opacity="0.1">
    <path id="Path_31" data-name="Path 31" d="M164.96,434.826c-3.652,4.293-5.911,9.515-8.2,14.609,6.167-4.213,10.877-10.348,17.653-13.7a43.64,43.64,0,0,0,3.268-5.943,9.184,9.184,0,0,0-.08,2.387l.24,1.169c-.337,1.3-.8,2.531-1.2,3.8a71.555,71.555,0,0,0-.961,15.378,93.184,93.184,0,0,1,7.417-17.06c3.364-5.7,5.495-12.014,8.49-17.909a14.262,14.262,0,0,1,2.146-2.579,53.059,53.059,0,0,1-1.169,9.676c3.156.817,6.135-1.7,8.186-3.829,3.476-3.876,2.643-9.307,3.316-14.048.1-1.987,1.89-3.108,3.124-4.437,2.339-2.179,4.133-5.046,7.064-6.52,1.858-1.009,3.716-2.018,5.559-3.06-2.6,8.186-4.229,16.644-6.584,24.893-.945,4.085-1.923,8.282-4.325,11.806-2.931,4.421-7.945,6.7-12.126,9.707a65.263,65.263,0,0,0,12.864-5.542c-.433,1.521-.833,3.059-1.234,4.581a54.721,54.721,0,0,0-9.755,7.257c.64-.176,1.906-.529,2.531-.72-1.586,4.021-3.236,8.009-4.71,12.062a46.4,46.4,0,0,0,8.762-7.16c-1.089,3.492-1.618,7.321-3.956,10.268l-.016.064c-.112,7.849-5.238,14.545-6.231,22.219,2.451-2.355,4.261-5.254,6.375-7.881,3.476-4.277,4.389-9.852,5.671-15.058.945-3.14.464-6.68,2.467-9.483a194.7,194.7,0,0,0,4.614,20.953c.176-6.247.849-12.463,1.49-18.662.4-4.582-.32-9.147-.5-13.712-.208-2.771,1.105-5.319,2.034-7.833a152.073,152.073,0,0,0,3.284,15.346c.385-6.232.849-12.463,1.778-18.63,1.009-6.28.657-12.639.593-18.951.064-7.065,3.284-13.568,3.877-20.537,7.689-8.17,17.445-13.984,27.04-19.639l-.048,1.874A37.885,37.885,0,0,0,244.8,381.1c.016,4.053-2.611,7.4-4.213,10.941a57.983,57.983,0,0,1,8.474-4.357,26.986,26.986,0,0,0-3.268,4.021,107.967,107.967,0,0,1-3.476,10.38c4.053-2.819,7.369-6.519,11.133-9.691l-.288,1.65c-6.456,4.934-10.909,11.87-16.035,18.053l-.016.192c.208,3.716-2.387,6.584-4.341,9.467a65.525,65.525,0,0,0-4.485,7.481c9.259-5.863,18.55-12.047,25.743-20.425-.048.929-.08,1.858-.1,2.771a78.014,78.014,0,0,0-5.591,5.447c-7.032,8.922-15.571,16.547-22.475,25.6,5.158-3.364,10.2-7.209,16.275-8.715a54.043,54.043,0,0,0,11.085-10.46c-.208,2.034-.4,4.085-.609,6.12a51.648,51.648,0,0,0-8.474,9.355c.833,1.762-.352,3.588-.9,5.254-2.531,6.52-8.346,10.845-11.9,16.708,7.064-3.444,14.081-7.353,19.415-13.248-.576,3.957-4.549,6.167-7.272,8.65a46.258,46.258,0,0,1-8.346,18.438c6.664-3.076,14.721-6.616,16.644-14.481a99.688,99.688,0,0,0,14.433,29.219c-4.133-9.275-6.408-19.287-7.737-29.331-1.121-5.687-2.259-11.373-3.54-17.044-.48-1.49.8-2.723,1.33-4.037a39.509,39.509,0,0,0,3.092,9.964c4,7.849,8.346,15.538,13.023,23-2.179-7.849-4.149-15.747-5.655-23.756-1.538-8.939-6.327-16.852-8.586-25.583a11.094,11.094,0,0,1,.432-2.787c1.618,6.745,5.591,12.479,9,18.39,3.652,6.151,7.545,12.158,11.566,18.069-2.114-7.753-4.133-15.554-5.7-23.452-1.393-6.424-1.794-13.424-5.719-18.966a4.921,4.921,0,0,1-.593-2.98,5.972,5.972,0,0,1,1.778,4.053c3.748,6.327,7.257,12.816,11.357,18.934-3.828-10.444-6.44-21.273-9.419-31.974-1.938-5.991-5.158-11.469-7.673-17.2a5.828,5.828,0,0,1-.4-3.092c3.14,3.236,4.47,7.609,6.6,11.486,1.041-2.932.144-6.039-.3-9-1.089-5.3-1.954-10.973-5.446-15.314a29.952,29.952,0,0,0-.561-6.552c7.978-4.613,16.147-8.874,24.381-13.039.32,1.362.609,2.739.9,4.1-2.627,2.131-5.879,3.54-7.994,6.231a34.071,34.071,0,0,0-6.2,12.335c-1.01,3.588-1.826,7.4-1.01,11.1a73.789,73.789,0,0,1,9.307-9.675c-3.044,7.1-6.3,14.225-7.866,21.818,2.579-2.115,4.2-5.078,6.119-7.737,4.085-5.847,7.449-12.175,11.421-18.1.112.688.225,1.41.353,2.1-4.149,3.877-5.719,9.563-7.032,14.882.673,8.618-1.858,17.012-3.813,25.31A160.189,160.189,0,0,0,296.78,386.16c.337,1.2.673,2.387,1.026,3.588a67.258,67.258,0,0,0-6.92,13.728c.7,8.169-2.755,15.875-3.012,23.964,5-4.9,9.724-10.268,13.1-16.452-.721,2.275-1.762,4.485-2.1,6.84,1.778,5.527-.737,11.053-.561,16.628,3.412-4.453,5.542-9.691,8.153-14.625-.433,3.012-1.522,5.927-1.586,8.971,2.5,5.094,4.79,10.3,7.817,15.106.224-1.314.465-2.627.705-3.925a25.52,25.52,0,0,0,2.243,3.781c5.383,4.261,11.069,8.073,16.724,11.934-1.986-4.534-3.7-9.243-6.52-13.344-3.669-5.479-8.169-10.316-12.607-15.154-1.538-1.553-1.57-3.86-2.018-5.863,3.941,5.27,9.579,8.874,14.337,13.312,3.3,2.883,6.6,5.735,9.884,8.634-3.188-7.449-6.728-14.722-9.98-22.138-3.252-8.138-10.092-13.985-16.468-19.671-2.018-1.41-1.81-4.1-2.435-6.216a29.4,29.4,0,0,0,5.094,4.982c5.879,4.165,11.886,8.186,17.926,12.143-3.14-5.4-6.183-10.877-8.858-16.532-3.733-8.634-11.39-14.513-18.566-20.184-.464-1.682-.9-3.38-1.281-5.11,3.027,4.053,6.055,8.41,10.476,11.053,5.639,3.316,11.245,6.68,16.772,10.172-2.547-3.572-5.062-7.161-7.625-10.685-2.483-3.332-4.614-7.016-8.026-9.515,4.725,2.067,9.371,4.293,14.193,6.071-6.5-5.623-12.4-11.919-18.646-17.83a84.466,84.466,0,0,1,12.046,1.682,74.355,74.355,0,0,0-11.614-10.14c-4.1-2.387-8.987-1.506-13.456-2.227-.208-1.121-.385-2.259-.545-3.4,4.613-2.387,9.227-4.806,13.76-7.353,6.119-3.652,13.12-5.607,19.031-9.692,1.538,3.252,3.172,6.471,4.693,9.74a20.544,20.544,0,0,0-3.668,10.156c1.762,1.954,1.25,4.661,1.409,7.064.176,4.229.353,8.474.929,12.671.705-.769,1.827-1.314,2.179-2.371a9.515,9.515,0,0,1,3.172-5.078c-.961,6.407-1.458,12.944-.3,19.351,1.313-1.714,2.579-3.492,3.749-5.334a18.175,18.175,0,0,0-.24,2.627c.144,3.877-.433,7.737-.08,11.6.433,4.662-.1,9.323-.449,13.968,1.906-1.986,3.6-4.149,5.318-6.311,0,.192.016.545.016.721.32,7.3-.673,14.642.1,21.93.561-.769,1.137-1.554,1.73-2.307l.1.385c1.249,5.27,1.009,10.8,2.387,16.051a43.009,43.009,0,0,0,4.277-7.016l.288.384c5,5.591,4.742,13.969,9.868,19.447a61.1,61.1,0,0,1,9.355,15.538,87.924,87.924,0,0,0,.769-13.151c.032-4.566-1.458-8.891-2.515-13.28,4.582,4.565,9.275,9.034,14.113,13.328a242.806,242.806,0,0,1-12.463-23.532c-2.723-6.055-7.673-10.637-12.078-15.442a34.155,34.155,0,0,1-1.217-5.206c7.144,7.657,15.586,13.984,23.388,20.937-4.5-7.209-9.5-14.113-14.065-21.289-2.8-4.6-7.16-7.9-11.2-11.341a31.6,31.6,0,0,1-1.41-6.792c4.614,6.487,12.335,9,19,12.7,3.38,1.794,6.792,3.524,10.156,5.366-4.421-5.847-8.875-11.662-13.215-17.573-4.053-5.927-10.749-9.6-17.621-11.277.112-.945-.208-2.035.24-2.915a18.839,18.839,0,0,0,5.206,1.906c6.92,1.233,13.792,2.691,20.729,3.732q-9.059-5.863-17.813-12.127c-3.6-2.627-8.25-2.9-12.543-2.691-.673-1.762-1.314-3.54-1.89-5.35,3.764.785,7.609,2.179,11.5,1.265,5.751-1.265,11.566-2.243,17.365-3.316-4.982-2.435-10.028-4.742-15.058-7.081-5.319-2.691-11.726-2.018-17.14.032.224-1.073.416-2.163.657-3.252,3.524.208,7.353.753,10.621-1.041,4.485-2.5,8.923-5.126,13.472-7.561-4.854-1.458-9.724-2.915-14.593-4.325-3.492-1.009-7.193.048-10.4,1.474-2.018.545-4.357,3.556-6.344,1.682a61.9,61.9,0,0,1-5.783-10.044c6.023-3.556,11.582-7.882,17.893-10.973,6.135-3.012,11.694-8.041,18.887-8.106,3.412.1,7.032-3.893,4.9-7.129-1.2-3.076-4.982-3.092-7.641-2.275-6.6,1.987-11.342,7.417-17.46,10.38-7.417,3.8-14.529,8.154-21.642,12.447q-3.2-2.691-6.472-5.254c-.128-3.044.753-5.991.737-9.035.048-4.678.849-9.4.016-14.048a108.979,108.979,0,0,0-2.947-11.982c-1.138,4.181-.977,8.618-2.579,12.671-1.874,4.838-4.021,9.883-3.156,15.2-1.121-1.57-3.092-2.8-3.076-4.934-.785-9.275-1.762-18.9-6.584-27.1a133.815,133.815,0,0,0-13.2-17.925,128.035,128.035,0,0,1,3.2,19.062,60.336,60.336,0,0,0,4.133,18.983c-3.973-3.316-8.105-6.488-11.838-10.06-1.842-9.259-3.636-18.662-7.177-27.456-4.774-10.252-11.982-19.127-19.319-27.665a138.86,138.86,0,0,1,7.353,25.246,138.541,138.541,0,0,0,3.412,14.69c-2.611-1.826-5.3-3.557-8.042-5.19-1.65-1.073-3.717-2.147-4.053-4.293-2.275-10.268-5.03-20.985-11.95-29.219a112,112,0,0,0-20.232-16.74,112.038,112.038,0,0,1,10.124,18.037,154.292,154.292,0,0,0,9.867,19.735c-4.181-2.963-8.266-6.055-12.527-8.89-2.355-7.225-5.238-14.609-10.957-19.9-4.181-4.037-9.707-6.135-15.042-8.2a92.264,92.264,0,0,0-15.2-4.454,107.438,107.438,0,0,1,12.8,12.239c-6.215-4.133-13.744-5.527-21.033-6.248,1.2.753,2.339,1.586,3.492,2.419A4.994,4.994,0,0,0,188.3,222.3c3.428,2.675,6.808,5.43,10.172,8.186,4.373,3.588,9.387,6.247,14.065,9.371,7.817,5.254,16.707,8.49,25.053,12.767a22.906,22.906,0,0,1,4.277,3.3c1.666.977,3.748,1.089,5.383,2.194,1.6,1.153,3.06,2.5,4.613,3.749-8.7-1.3-17.509-1.218-26.255-1.426,8.394,3.508,17.477,4.95,26.015,8.041,4.357,1.666,9.131,2.4,12.911,5.334,3.476,1.618,5.815,4.854,8.859,7.129a110.58,110.58,0,0,0-25.086-1.249c4.309,1.842,8.906,2.852,13.3,4.421,5.767,2,11.486,4.2,17.092,6.664a18.2,18.2,0,0,1,5.975,4.165,35.3,35.3,0,0,1,4.661.753c2.355,1.538,4.277,3.652,6.472,5.43-5.046.737-10.156,1.217-15.026,2.755,7,3.364,14.481,5.526,21.866,7.881a7.12,7.12,0,0,1,3.668,2.371c1.314-.272,2.659-.529,4-.753,3.781,3.46,7.753,6.712,11.63,10.06C311.71,329.677,301.522,336,290.917,341.58c-.945-.641-1.89-1.266-2.819-1.907,1.634-3.46,3.765-7.1,3.092-11.085a83.594,83.594,0,0,1-1.826-9.916,85.356,85.356,0,0,0-5.991,7.161c-.593-4.389-1.538-8.842-3.925-12.639-3.187-5.014-6.488-9.948-9.788-14.882.16,5.574.609,11.149.577,16.74a28.128,28.128,0,0,0,2.788,11.966c-1.81-1.346-3.556-2.755-5.27-4.213-1.01-9.643-3.733-19.751-10.669-26.88a123.423,123.423,0,0,0-17.108-12.639,102.846,102.846,0,0,1,6.376,16c1.073,4.084,3.092,7.817,4.918,11.63-2.4-1.938-5.158-3.364-7.481-5.367-2.739-4-4.982-8.346-7.433-12.527-3.252-5.607-5.911-12-11.374-15.875a86.355,86.355,0,0,0-17.06-9.1c6.824,7.577,10.076,17.476,16.452,25.358-5.815-3.412-10.957-7.833-15.971-12.3a127.778,127.778,0,0,0-19.784-12.286,123.069,123.069,0,0,1-12.35-7.577A156.068,156.068,0,0,0,188.6,277.551c-8.17-2.387-16.836-3.524-24.269-7.913,3.236,4.533,8.17,7.368,13.007,9.932a14.04,14.04,0,0,1,4.261,3.636l.048.064.32-.064c4.693-1.025,8.73,2.579,12.7,4.5,7,4.325,15.666,3.749,22.859,7.609l-1.521.769c3.155.4,6.744-.208,9.291,2.195a79.105,79.105,0,0,0-14.674,3.3c6.792,2.419,13.7,4.726,20.857,5.815,1.474.3,2.9.769,4.357,1.169,2.723-.4,4.486,1.826,6.408,3.348-6.5.977-13.007,1.986-19.463,3.2,7.368,2.82,15.442,2.8,23,4.9a8.955,8.955,0,0,1,3.732,2.339c2.067.16,4.566-1.121,6.247.577,1.314,1.009,2.515,2.131,3.733,3.236-5.991.576-11.646,2.755-17.461,4.181,7.3,2.659,14.913,4.341,22.282,6.776,4.277,2.131,8.971,3.4,12.96,6.087l2-.609c1.33,1.025,2.643,2.051,3.989,3.076-7.754,3.957-15.25,8.362-22.843,12.607-2.915-1.954-6.328-2.979-9.323-4.774-3.444-4.4-4.1-10.492-8.281-14.4a129.927,129.927,0,0,1-9.532-10.156c1.394,6.6,1.906,13.824,5.943,19.431-2.146-.929-4.293-1.842-6.423-2.787-1.57-4.966-3.412-9.932-6.52-14.177-1.81-2.611-4.421-4.534-6.744-6.664-2.948-2.611-5.671-5.463-8.634-8.042,1.137,5.238,2.6,10.4,3.94,15.57a25.606,25.606,0,0,0,3.925,8.09c-1.057-.336-2.1-.689-3.14-1.041-2.98-10.589-8.634-21.1-18.086-27.2-4.053-2.852-8.089-5.735-12.334-8.314,2.338,4.79,4.693,9.564,6.567,14.545A41.535,41.535,0,0,0,204.3,336.2c-2.74-1.073-5.655-1.618-8.362-2.771-3.524-4.838-6.263-10.364-10.861-14.337-3.508-3.316-8.073-5.046-12.383-7a100.723,100.723,0,0,0-13.52-5,153.982,153.982,0,0,1,13.616,14.561c-8.09-2.483-16.564-.625-24.717.464,3.62,3.652,9.035,4.293,13.5,6.52a30.938,30.938,0,0,0,15.2,3.011,22.677,22.677,0,0,1,4.693,1.186c-4.421,1.666-9.051,2.691-13.584,3.941l.625,1.377c7.256.16,14.993.817,21.77-2.275,1.987.913,3.989,1.842,5.991,2.739a68.765,68.765,0,0,0-12.607,4.405c4.822,2.1,10.22,1.81,15.234,3.2a48.735,48.735,0,0,0,10.669,1.426c1.169-.545,2.259-1.65,3.6-1.682,2.019.641,3.925,1.618,5.911,2.371-5.719,2.867-11.278,6.087-17.14,8.682,7.577.561,15.122-.5,22.635-1.362,1.842-.433,3.348-1.762,5-2.675,1.121.5,2.226.993,3.364,1.474-6.119,3.749-11.934,8.058-18.582,10.829,4.533-1.906,9.5-1.714,14.3-2.019,4.485-.144,8.891-1.025,13.344-1.586.737-.657,1.458-1.362,2.179-2.082,2.723,1.234,5.43,2.5,8.154,3.732q-9.179,5.719-17.813,12.238c-4,3.14-8.922,4.71-13.2,7.385-2.691-.929-5.382-1.858-8.122-2.547-2.515-.368-3.508-3.028-5.014-4.726-7.481-10.637-18.2-19.287-30.58-23.388,3.156,4.037,7.193,7.241,10.749,10.909,4.757,4.582,8.89,9.74,13.264,14.69-2.979-.673-5.911-1.458-8.842-2.259-1.97-4.165-3.877-8.666-7.769-11.421-7.384-5.511-15.923-9.179-24.429-12.607-2.435-.785-4.9-2.082-7.545-1.666,2.131,2.259,4.725,4,7.064,6.055a188.346,188.346,0,0,1,14.4,14.433c-3.716-.881-7.721-1.057-10.957-3.316-4.614-2.9-10.3-2.8-15.506-2.083-4.693.673-9.515.529-14.145,1.666a23.925,23.925,0,0,0,5.078,1.2c6.888.577,13.953,2.4,19.591,6.552l.128.1a38.04,38.04,0,0,1,20.216,2.275A70.434,70.434,0,0,0,160.7,386.3c8.362-.961,16.628-2.691,24.942-3.957,1.009-.609,1.938-1.362,2.9-2.051,1.858.625,3.717,1.217,5.607,1.746-4.662,3.188-9.147,6.648-14.017,9.547-2.739,1.875-6.023,3.508-7.577,6.632a15.4,15.4,0,0,0,2.883-1.009,41.07,41.07,0,0,1,6.52-4.117c7.625-3.813,15.491-7.721,24.109-8.634l.593.32c2.819,1.3,6.055,1.362,8.955,2.547-5.8,4.454-10.765,9.964-17.108,13.632-5.847-1.41-11.806.481-17.557,1.474a17.625,17.625,0,0,1,6.311,5.927l-1.2.721c-1.778,1.057-3.957.9-5.847,1.6a43.006,43.006,0,0,1-14.433,6.824c-2.883.593-5.8.961-8.6,1.826,6.712,1.378,14.049,1.858,20.2-1.762-1.49,1.154-2.787,2.563-4.485,3.38-3.3.625-6.7.673-9.916,1.666-4.1,3.508-8.025,7.257-12.527,10.268,3.6-.416,7.16-1.346,10.813-1.362,1.634-.288,3.284-.625,4.918-1.009-2.4,2.211-4.629,4.6-6.872,6.92A50.146,50.146,0,0,0,164.96,434.826Z" transform="translate(-129.413 -207.377)" fill="#14a384"/>
    <g id="Group_12" data-name="Group 12" transform="translate(47.224 220.806)">
      <path id="Path_32" data-name="Path 32" d="M147.764,225.161a24.055,24.055,0,0,0-.961,4.966c.4-1.265.865-2.5,1.2-3.8Z" transform="translate(-146.803 -225.161)" fill="#14a384"/>
    </g>
    <g id="Group_13" data-name="Group 13" transform="translate(0 3.909)">
      <path id="Path_33" data-name="Path 33" d="M151.406,239.079c-1.682,2.483-2.723,5.351-4.389,7.865,4.662-3.156,8.827-6.968,13.2-10.476a33.247,33.247,0,0,0,8.842-11.085C162.283,228.731,157.574,234.866,151.406,239.079Z" transform="translate(-124.062 -4.929)" fill="#14a384"/>
      <path id="Path_34" data-name="Path 34" d="M155.2,231.468c-2.563,1.634-5.03,3.412-7.465,5.222,2.708-.865,5.527-1.169,8.282-1.858,4.5-3.011,8.426-6.76,12.527-10.268C163.461,225.461,159.441,228.841,155.2,231.468Z" transform="translate(-134.98 -17.23)" fill="#14a384"/>
      <path id="Path_35" data-name="Path 35" d="M154.211,229.59c-2.227,2.13-5.014,3.78-6.68,6.407a39.456,39.456,0,0,0,9.563-4.021c2.243-2.323,4.469-4.709,6.872-6.92-1.634.384-3.284.721-4.917,1.009C157.094,226.675,155.781,228.389,154.211,229.59Z" transform="translate(-127.203 -9.825)" fill="#14a384"/>
      <path id="Path_36" data-name="Path 36" d="M155.85,228.08c-3,1.586-6.167,2.835-9.2,4.357a18.419,18.419,0,0,0,2.659.032c2.8-.865,5.719-1.234,8.6-1.826a43.008,43.008,0,0,0,14.433-6.824C166.759,224.764,160.864,225.181,155.85,228.08Z" transform="translate(-121.553 -28.419)" fill="#14a384"/>
      <path id="Path_37" data-name="Path 37" d="M148.006,222.527c1.586,1.554,4.069,1.154,6.055,1.81,7.609,1.89,15.138,4.822,23.1,4.5-5.639-4.149-12.7-5.975-19.591-6.552a23.918,23.918,0,0,1-5.078-1.2C150.873,220.941,149.448,222,148.006,222.527Z" transform="translate(-148.006 -69.674)" fill="#14a384"/>
      <path id="Path_38" data-name="Path 38" d="M155.262,230.606c-3.476,5.254-6.76,10.636-9.916,16.1q5.622-4.157,10.973-8.7c1.474-4.053,3.124-8.042,4.71-12.062-.625.192-1.891.544-2.531.721A18.606,18.606,0,0,0,155.262,230.606Z" transform="translate(-89.263 3.512)" fill="#14a384"/>
      <path id="Path_39" data-name="Path 39" d="M152.067,226.007a14.029,14.029,0,0,0-5.751,5.639c5.494-1.3,10.925-2.884,16.467-3.925,4.934-1.234,10.38-2.051,14.225-5.671C168.694,223.316,160.429,225.046,152.067,226.007Z" transform="translate(-120.781 -54.988)" fill="#14a384"/>
      <path id="Path_40" data-name="Path 40" d="M148.711,243.861c-1.714,1.682-3.508,3.508-4.117,5.927,2.963-1.313,5.943-2.6,8.858-4.021,4.181-3.012,9.195-5.286,12.126-9.708,2.4-3.524,3.38-7.721,4.325-11.806-2.788,2.339-4.774,5.447-7.353,7.994C158.338,236.589,153.052,239.664,148.711,243.861Z" transform="translate(-86.092 -21.886)" fill="#14a384"/>
      <path id="Path_41" data-name="Path 41" d="M146.215,224.345c3.652,2.355,7.785,3.812,11.742,5.607l1.2-.721a17.629,17.629,0,0,0-6.311-5.927C150.636,223.7,148.426,223.977,146.215,224.345Z" transform="translate(-101.313 -36.154)" fill="#14a384"/>
      <path id="Path_42" data-name="Path 42" d="M151.524,230.816a41.047,41.047,0,0,0-6.52,4.117c10.989-2.451,21.93-5.863,31.221-12.431l-.593-.32C167.014,223.095,159.149,227,151.524,230.816Z" transform="translate(-98.981 -53.005)" fill="#14a384"/>
      <path id="Path_43" data-name="Path 43" d="M146.576,222.329c4.838,2.707,10.572,2.659,15.939,3.06l-.625-1.377c4.533-1.25,9.163-2.275,13.584-3.941a22.676,22.676,0,0,0-4.693-1.185C162.691,219.91,154.762,222.057,146.576,222.329Z" transform="translate(-123.412 -102.523)" fill="#14a384"/>
      <path id="Path_44" data-name="Path 44" d="M149.805,233.983a43.583,43.583,0,0,0-7.017,8.858,251.118,251.118,0,0,0,23.292-17.573C160.009,226.775,154.963,230.619,149.805,233.983Z" transform="translate(-53.355 -6.642)" fill="#14a384"/>
      <path id="Path_45" data-name="Path 45" d="M143.5,241.644c-.865,1.3-1.6,4.646,1.089,3.46a46.252,46.252,0,0,0,8.346-18.438C148.992,231.1,146.253,236.453,143.5,241.644Z" transform="translate(-38.861 14.34)" fill="#14a384"/>
      <path id="Path_46" data-name="Path 46" d="M146.619,242.946c-1.538,2.146-3.476,4.213-3.973,6.9a21.967,21.967,0,0,0,4.261-2.307c3.556-5.863,9.371-10.188,11.9-16.708.545-1.666,1.73-3.492.9-5.254C155.365,231.38,151.1,237.243,146.619,242.946Z" transform="translate(-44.978 -1.94)" fill="#14a384"/>
      <path id="Path_47" data-name="Path 47" d="M144.822,222.943c7.913,2.243,15.971,4.918,24.333,4.55a23.977,23.977,0,0,0,11.374-3.268,48.727,48.727,0,0,1-10.669-1.426c-5.014-1.394-10.412-1.105-15.234-3.2A99.5,99.5,0,0,0,144.822,222.943Z" transform="translate(-100.369 -91.859)" fill="#14a384"/>
      <path id="Path_48" data-name="Path 48" d="M153.758,222.634c-4.325,5.126-8.506,10.556-11.2,16.74a54.5,54.5,0,0,0,7.721-6.36A108.054,108.054,0,0,0,153.758,222.634Z" transform="translate(-37.38 -46.217)" fill="#14a384"/>
      <path id="Path_49" data-name="Path 49" d="M142.8,225.534c4.117.721,8.314.288,12.463.1,5.975-.528,12.238-1.425,17.3-4.87-4.453.561-8.859,1.442-13.344,1.586-4.805.3-9.772.112-14.3,2.018Z" transform="translate(-59.962 -74.362)" fill="#14a384"/>
      <path id="Path_50" data-name="Path 50" d="M146.568,214.638c.016,2.9,1.89,5.318,3.684,7.417,5.223,5.622,12.159,9.355,19.207,12.174a14.044,14.044,0,0,0-4.261-3.636c-4.838-2.563-9.771-5.4-13.007-9.932C150.189,218.771,148.042,217.008,146.568,214.638Z" transform="translate(-117.269 -166.308)" fill="#14a384"/>
      <path id="Path_51" data-name="Path 51" d="M144.325,217.551c6.776,2.451,13.648,4.6,20.248,7.513,7.593,3.332,16.051,5.126,24.333,3.844l1.522-.768c-7.193-3.861-15.859-3.284-22.859-7.609-3.973-1.922-8.01-5.527-12.7-4.5l.849.85C151.918,216.655,147.993,216.35,144.325,217.551Z" transform="translate(-102.307 -148.109)" fill="#14a384"/>
      <path id="Path_52" data-name="Path 52" d="M143.182,219.763c4.517,2.723,9.916,3.236,14.962,4.357,7.048.977,14.481,2.419,21.37-.128-1.458-.4-2.883-.865-4.357-1.169-7.161-1.089-14.065-3.4-20.857-5.815C150.647,218.145,146.883,218.8,143.182,219.763Z" transform="translate(-73.083 -130.714)" fill="#14a384"/>
      <path id="Path_53" data-name="Path 53" d="M142.328,219.711a109.043,109.043,0,0,0,36.219,5.383,8.951,8.951,0,0,0-3.732-2.339c-7.561-2.1-15.635-2.082-23-4.9A25.261,25.261,0,0,0,142.328,219.711Z" transform="translate(-58.436 -118.023)" fill="#14a384"/>
      <path id="Path_54" data-name="Path 54" d="M142.459,239.579c-1.121,4.117-2.692,8.122-3.252,12.367a60.983,60.983,0,0,0,7.545-11.053c-.176-5.575,2.339-11.1.561-16.628C145.423,229.279,144.029,234.469,142.459,239.579Z" transform="translate(22.152 -21.721)" fill="#14a384"/>
      <path id="Path_55" data-name="Path 55" d="M146.42,223.369c-3.828,8.762-6.472,18.214-6.68,27.825,1.282-1.186,2.819-2.275,3.668-3.861C143.665,239.244,147.125,231.538,146.42,223.369Z" transform="translate(15.052 -35.178)" fill="#14a384"/>
      <path id="Path_56" data-name="Path 56" d="M141.841,245.972c-.7,2.531-1.65,5.014-1.762,7.657a19.037,19.037,0,0,0,4.677-6.023c1.955-8.3,4.485-16.692,3.813-25.31C145.878,230.05,144.18,238.107,141.841,245.972Z" transform="translate(7.456 -51.278)" fill="#14a384"/>
      <path id="Path_57" data-name="Path 57" d="M139.407,242.555c.577,3.636.993,7.433,2.9,10.669,2.259-4.053,3.108-8.682,4.037-13.167-3.027-4.806-5.318-10.012-7.817-15.106A89.944,89.944,0,0,0,139.407,242.555Z" transform="translate(36.946 -11.433)" fill="#14a384"/>
      <path id="Path_58" data-name="Path 58" d="M142.806,211.621c1.169,2.018,3.268,3.14,5.174,4.357q10.26,6.223,20.184,12.944c3.556,2.4,7.513,4.116,11.229,6.279-6.632-1.49-12.879-4.309-19.479-5.879,4.966,4.854,11.421,7.737,17.525,10.877,11.053,5.8,23.068,9.355,35.21,12.062a22.925,22.925,0,0,0-4.277-3.3c-8.346-4.277-17.236-7.513-25.053-12.767-4.678-3.124-9.692-5.783-14.065-9.371-3.364-2.756-6.744-5.511-10.172-8.186a5,5,0,0,1-1.666-2.515c-1.153-.833-2.291-1.666-3.492-2.419C150.207,213.014,146.426,212.79,142.806,211.621Z" transform="translate(-100.195 -211.621)" fill="#14a384"/>
      <path id="Path_59" data-name="Path 59" d="M140.595,219.566c7.145,5.11,15.923,7.3,24.541,8.186-3.476,1.89-6.953,3.748-10.493,5.462,4.982,2.419,10.733,2.066,16.115,1.826,3.508-.064,6.648-1.7,9.659-3.348-3.989-2.691-8.682-3.956-12.959-6.087-7.369-2.435-14.978-4.117-22.282-6.776C143.622,218.669,142.1,219.277,140.595,219.566Z" transform="translate(-32.547 -103.764)" fill="#14a384"/>
      <path id="Path_60" data-name="Path 60" d="M136.8,225.884c5.19,9.964,15.122,16,22.41,24.253-1.762-4.165-3.636-8.3-5.687-12.319C147.87,233.957,142.183,230.145,136.8,225.884Z" transform="translate(49.436 2.595)" fill="#14a384"/>
      <path id="Path_61" data-name="Path 61" d="M141.391,214.392c5.991,6.921,14.657,11.053,23.372,13.44,7.128,2.035,14.657,1.7,21.93.7-3.78-2.931-8.554-3.668-12.911-5.334-8.538-3.092-17.621-4.534-26.015-8.042A29.635,29.635,0,0,0,141.391,214.392Z" transform="translate(-51.572 -170.003)" fill="#14a384"/>
      <path id="Path_62" data-name="Path 62" d="M140.134,215.95c6.007,2.771,12.367,4.678,18.293,7.609,7.513,3.22,14.978,7.673,23.436,7.449a18.186,18.186,0,0,0-5.975-4.165c-5.607-2.467-11.326-4.662-17.092-6.664-4.389-1.57-8.986-2.579-13.3-4.422C143.738,215.421,141.9,215.87,140.134,215.95Z" transform="translate(-26.607 -151.345)" fill="#14a384"/>
      <path id="Path_63" data-name="Path 63" d="M136.182,240.9c0,1.922-.208,3.956.641,5.751,1.522-1.954,2.867-4.037,4.213-6.119l-.048-.24c-1.378-5.254-1.138-10.781-2.387-16.051C136.775,229.6,136.31,235.3,136.182,240.9Z" transform="translate(77.88 -22.021)" fill="#14a384"/>
      <path id="Path_64" data-name="Path 64" d="M134.765,248.573a11.25,11.25,0,0,0,.593,2.9,69.129,69.129,0,0,0,5.35-8.362c2.5,7.337,6.728,13.953,9.195,21.289,1.266,3.4,2.307,6.856,3.348,10.317a82.022,82.022,0,0,0,2.1-14.9,61.089,61.089,0,0,0-9.355-15.539c-5.126-5.478-4.87-13.856-9.868-19.447A124,124,0,0,0,134.765,248.573Z" transform="translate(87.306 -13.19)" fill="#14a384"/>
      <path id="Path_65" data-name="Path 65" d="M137.592,237.477c-.7,5.046-1.73,10.236-.785,15.314,2.147-2.227,3.332-5.142,4.71-7.865-.769-7.289.224-14.626-.1-21.93C139.338,227.562,138.537,232.592,137.592,237.477Z" transform="translate(73.138 -40.78)" fill="#14a384"/>
      <path id="Path_66" data-name="Path 66" d="M136.733,248.709a15.854,15.854,0,0,0,.561,3.011,24.9,24.9,0,0,0,3.476-4.4c.352-4.646.881-9.307.449-13.969-.352-3.861.224-7.721.08-11.6C138.543,230.464,136.6,239.546,136.733,248.709Z" transform="translate(68.455 -59.509)" fill="#14a384"/>
      <path id="Path_67" data-name="Path 67" d="M138.783,217.873c7.978,5.622,17.445,10.8,27.553,9.531a7.116,7.116,0,0,0-3.668-2.371c-7.385-2.355-14.866-4.517-21.866-7.881C140.289,217.328,139.28,217.681,138.783,217.873Z" transform="translate(10.562 -128.551)" fill="#14a384"/>
      <path id="Path_68" data-name="Path 68" d="M140.318,224.779c-1.954,6.711-3.924,13.712-3.252,20.76a26.5,26.5,0,0,0,4.6-5.478c-1.153-6.407-.657-12.943.3-19.351a9.51,9.51,0,0,0-3.172,5.078Z" transform="translate(64.581 -75.113)" fill="#14a384"/>
      <path id="Path_69" data-name="Path 69" d="M138.078,219.943c-1.314,7.113-.817,14.385-.048,21.514.8-.513,1.6-1.025,2.419-1.554l-.032-.224c-.577-4.2-.753-8.442-.929-12.671C139.327,224.6,139.84,221.9,138.078,219.943Z" transform="translate(60.782 -86.633)" fill="#14a384"/>
    </g>
    <g id="Group_14" data-name="Group 14" transform="translate(62.458 144.283)">
      <path id="Path_70" data-name="Path 70" d="M148.961,238.414c-1.089,5.045-2.467,10.012-3.62,15.058a29.849,29.849,0,0,0,3.156-4.357c.993-7.673,6.119-14.369,6.231-22.219A27.376,27.376,0,0,0,148.961,238.414Z" transform="translate(-145.341 -122.58)" fill="#14a384"/>
      <path id="Path_71" data-name="Path 71" d="M143.885,222.963c1.538,1.2,3.556,1.185,5.415,1.329a43.4,43.4,0,0,0,19.816-3.909c-7.513.865-15.058,1.922-22.635,1.361Z" transform="translate(-136.404 -220.384)" fill="#14a384"/>
    </g>
    <g id="Group_15" data-name="Group 15" transform="translate(95.04 200.911)">
      <path id="Path_72" data-name="Path 72" d="M148.453,234.283c-1.858,2.883-3.989,5.623-5.35,8.795a21.235,21.235,0,0,0,3.829-2.211,65.533,65.533,0,0,1,4.485-7.481c1.954-2.883,4.55-5.751,4.341-9.467C153.066,227.186,150.823,230.791,148.453,234.283Z" transform="translate(-143.102 -223.919)" fill="#14a384"/>
    </g>
    <g id="Group_16" data-name="Group 16" transform="translate(108.112 169.721)">
      <path id="Path_73" data-name="Path 73" d="M149.9,221.972c-2.867,4.021-5.847,8.234-7.273,13.008a11.181,11.181,0,0,0,3.06-2.067C147.284,229.373,149.912,226.025,149.9,221.972Z" transform="translate(-142.623 -221.972)" fill="#14a384"/>
    </g>
  </g>
</svg>
