<svg xmlns="http://www.w3.org/2000/svg" width="32.146" height="27.11" viewBox="0 0 32.146 27.11">
  <g id="Group_36909" data-name="Group 36909" transform="translate(-111.429 -455.137)">
    <path id="Icon_awesome-hands" data-name="Icon awesome-hands" d="M10.287,12.858a1.607,1.607,0,0,0-2.572,1.929l1.914,2.552a.8.8,0,0,1-.075,1.05l-.643.643a.8.8,0,0,1-1.185-.055l-4.51-5.415V6.107A1.607,1.607,0,0,0,0,6.107v10.97a2.413,2.413,0,0,0,.527,1.507l5.229,6.746a3,3,0,0,1,.522,1.09A.787.787,0,0,0,7.047,27h6.615a.806.806,0,0,0,.8-.8V20.573a6.439,6.439,0,0,0-1.286-3.857l-2.893-3.857ZM30.538,4.5a1.606,1.606,0,0,0-1.607,1.607v7.454l-4.51,5.415a.807.807,0,0,1-1.185.055l-.643-.643a.8.8,0,0,1-.075-1.05l1.914-2.552a1.607,1.607,0,1,0-2.572-1.929l-2.893,3.857a6.439,6.439,0,0,0-1.286,3.857V26.2a.806.806,0,0,0,.8.8H25.1a.791.791,0,0,0,.768-.583,3,3,0,0,1,.522-1.09l5.229-6.746a2.413,2.413,0,0,0,.527-1.507V6.107A1.606,1.606,0,0,0,30.538,4.5Z" transform="translate(111.429 455.245)" fill="current"/>
    <path id="Icon_awesome-canadian-maple-leaf" data-name="Icon awesome-canadian-maple-leaf" d="M15.869,8.641l-4.527,1.1L13.937,3.82l-4.1,4.273L8.418,0S7.2,8.355,6.915,8.092l-3.7-4.634S5.337,9.57,5.267,9.746a39.141,39.141,0,0,1-4.551-1.1,44.01,44.01,0,0,0,4.551,4.147c1.861,1.337,2.894.85,2.894,1.2S8,16.405,8,16.405h.848s-.164-2.063-.164-2.416,1,.361,2.662-.866A42.42,42.42,0,0,0,15.869,8.641Z" transform="translate(119.057 455.137)" fill="current"/>
  </g>
</svg>
