<svg xmlns="http://www.w3.org/2000/svg" width="32.146" height="25.717" viewBox="0 0 32.146 25.717">
  <path id="Icon_awesome-shipping-fast" data-name="Icon awesome-shipping-fast" d="M31.342,17.68h-.8v-5.43a2.411,2.411,0,0,0-.708-1.7L24.813,5.53a2.411,2.411,0,0,0-1.7-.708H20.895V2.411A2.412,2.412,0,0,0,18.484,0H5.626A2.412,2.412,0,0,0,3.215,2.411V4.822H.4a.4.4,0,0,0-.4.4v.8a.4.4,0,0,0,.4.4H14.064a.4.4,0,0,1,.4.4v.8a.4.4,0,0,1-.4.4H2.009a.4.4,0,0,0-.4.4v.8a.4.4,0,0,0,.4.4H12.456a.4.4,0,0,1,.4.4v.8a.4.4,0,0,1-.4.4H.4a.4.4,0,0,0-.4.4v.8a.4.4,0,0,0,.4.4H10.849a.4.4,0,0,1,.4.4v.8a.4.4,0,0,1-.4.4H3.215v6.429a4.822,4.822,0,1,0,9.644,0h6.429a4.822,4.822,0,1,0,9.644,0h2.411a.806.806,0,0,0,.8-.8V18.484A.806.806,0,0,0,31.342,17.68ZM8.036,23.306a2.411,2.411,0,1,1,2.411-2.411A2.412,2.412,0,0,1,8.036,23.306Zm16.073,0a2.411,2.411,0,1,1,2.411-2.411A2.412,2.412,0,0,1,24.109,23.306Zm4.018-10.447H20.895V7.233H23.11l5.018,5.018Z" fill="current"/>
</svg>
