<?xml version="1.0" standalone="no"?>
<!DOCTYPE svg PUBLIC "-//W3C//DTD SVG 20010904//EN"
 "http://www.w3.org/TR/2001/REC-SVG-20010904/DTD/svg10.dtd">
<svg version="1.0" xmlns="http://www.w3.org/2000/svg"
 width="24.000000pt" height="24.000000pt" viewBox="0 0 24.000000 24.000000"
 preserveAspectRatio="xMidYMid meet">

<g transform="translate(0.000000,24.000000) scale(0.100000,-0.100000)"
fill="#000000" stroke="none">
<path d="M4 227 c-2 -7 -3 -60 -2 -118 l3 -104 75 0 75 0 3 40 c4 44 -14 39
-20 -5 -3 -23 -7 -25 -58 -25 l-55 0 -3 103 -3 102 61 0 c57 0 60 -1 60 -24 0
-14 5 -28 11 -31 7 -5 9 6 7 31 l-3 39 -73 3 c-54 2 -74 -1 -78 -11z"/>
<path d="M100 145 l-23 -25 23 -25 c25 -26 42 -26 20 0 -11 13 -4 15 54 15 37
0 66 4 66 10 0 6 -29 10 -66 10 -58 0 -65 2 -54 15 22 26 5 26 -20 0z"/>
</g>
</svg>
