<svg xmlns="http://www.w3.org/2000/svg" width="28.365" height="28.372" viewBox="0 0 28.365 28.372">
  <path id="Icon_ionic-ios-settings" data-name="Icon ionic-ios-settings" d="M30.523,18.682a3.65,3.65,0,0,1,2.342-3.405,14.468,14.468,0,0,0-1.751-4.218,3.7,3.7,0,0,1-1.485.318A3.642,3.642,0,0,1,26.3,6.251,14.424,14.424,0,0,0,22.088,4.5a3.647,3.647,0,0,1-6.811,0,14.468,14.468,0,0,0-4.218,1.751,3.642,3.642,0,0,1-3.331,5.126,3.579,3.579,0,0,1-1.485-.318A14.788,14.788,0,0,0,4.5,15.285,3.649,3.649,0,0,1,4.507,22.1a14.468,14.468,0,0,0,1.751,4.218,3.643,3.643,0,0,1,4.809,4.809,14.552,14.552,0,0,0,4.218,1.751,3.64,3.64,0,0,1,6.8,0A14.468,14.468,0,0,0,26.3,31.122a3.647,3.647,0,0,1,4.809-4.809A14.552,14.552,0,0,0,32.857,22.1,3.667,3.667,0,0,1,30.523,18.682Zm-11.774,5.9a5.909,5.909,0,1,1,5.909-5.909A5.908,5.908,0,0,1,18.749,24.584Z" transform="translate(-4.5 -4.5)" fill="#eaf2ff"/>
</svg>
