<svg xmlns="http://www.w3.org/2000/svg" width="26.934" height="26.919" viewBox="0 0 26.934 26.919">
  <path id="Icon_awesome-wine-bottle" data-name="Icon awesome-wine-bottle" d="M25.827,4.855s2.251-2.02.29-4.03-4.037.282-4.037.282L20.114,3.074,19,1.963,16.956,4.011l.323.788-.542.542s-4.543.518-6.639,2.614L1.353,16.7C-.026,18.077-.582,19.76.8,21.139l5,5c1.38,1.38,3.062.824,4.442-.555l8.744-8.744c2.1-2.1,2.613-6.639,2.613-6.639l.412-.412.775.336,2.19-2.19-1.11-1.11Z" transform="translate(0 26.919) rotate(-90)" fill="#eaf2ff"/>
</svg>
